<svg width="56" height="56" viewBox="0 0 56 56" fill="none" xmlns="http://www.w3.org/2000/svg">
<rect x="0.5" y="0.5" width="55" height="55" rx="9.5" fill="#1F1F1F" style="fill:#1F1F1F;fill:color(display-p3 0.1200 0.1200 0.1200);fill-opacity:1;"/>
<rect x="0.5" y="0.5" width="55" height="55" rx="9.5" stroke="#333333" style="stroke:#333333;stroke:color(display-p3 0.2000 0.2000 0.2000);stroke-opacity:1;"/>
<path fill-rule="evenodd" clip-rule="evenodd" d="M20.0333 17.7002C18.6665 19.067 18.6665 21.2669 18.6665 25.6667V30.3333C18.6665 34.7331 18.6665 36.933 20.0333 38.2998C21.4002 39.6667 23.6001 39.6667 27.9998 39.6667C32.3996 39.6667 34.5995 39.6667 35.9663 38.2998C37.3332 36.933 37.3332 34.7331 37.3332 30.3333V25.6667C37.3332 21.2669 37.3332 19.067 35.9663 17.7002C34.5995 16.3333 32.3996 16.3333 27.9998 16.3333C23.6001 16.3333 21.4002 16.3333 20.0333 17.7002ZM24.4998 18.9583C24.0166 18.9583 23.6248 19.3501 23.6248 19.8333C23.6248 20.3166 24.0166 20.7083 24.4998 20.7083H31.4998C31.9831 20.7083 32.3748 20.3166 32.3748 19.8333C32.3748 19.3501 31.9831 18.9583 31.4998 18.9583H24.4998ZM27.9998 36.1667C29.2885 36.1667 30.3332 35.122 30.3332 33.8333C30.3332 32.5447 29.2885 31.5 27.9998 31.5C26.7112 31.5 25.6665 32.5447 25.6665 33.8333C25.6665 35.122 26.7112 36.1667 27.9998 36.1667Z" fill="#56CCF2" style="fill:#56CCF2;fill:color(display-p3 0.3373 0.8000 0.9490);fill-opacity:1;"/>
</svg>
