<svg width="56" height="56" viewBox="0 0 56 56" fill="none" xmlns="http://www.w3.org/2000/svg">
<rect x="0.5" y="0.5" width="55" height="55" rx="9.5" fill="#1F1F1F" style="fill:#1F1F1F;fill:color(display-p3 0.1200 0.1200 0.1200);fill-opacity:1;"/>
<rect x="0.5" y="0.5" width="55" height="55" rx="9.5" stroke="#333333" style="stroke:#333333;stroke:color(display-p3 0.2000 0.2000 0.2000);stroke-opacity:1;"/>
<path d="M18.7198 20.4069L20.4071 18.7196C21.998 17.1288 22.7934 16.3333 23.7818 16.3333C24.7702 16.3333 25.5656 17.1288 27.1565 18.7196L24.3442 21.5318L18.7198 27.1563L18.7198 27.1563C17.1289 25.5655 16.3335 24.7701 16.3335 23.7816C16.3335 22.7932 17.1289 21.9978 18.7198 20.4069L18.7198 20.4069Z" fill="#56CCF2" style="fill:#56CCF2;fill:color(display-p3 0.3373 0.8000 0.9490);fill-opacity:1;"/>
<path d="M37.2806 35.5931L35.5932 37.2804C34.0024 38.8712 33.207 39.6667 32.2185 39.6667C31.2301 39.6667 30.4347 38.8712 28.8439 37.2804L28.8438 37.2804L34.4683 31.6559L37.2806 28.8437C38.8714 30.4345 39.6668 31.2299 39.6668 32.2184C39.6668 33.2068 38.8714 34.0022 37.2806 35.5931Z" fill="#56CCF2" style="fill:#56CCF2;fill:color(display-p3 0.3373 0.8000 0.9490);fill-opacity:1;"/>
<path d="M25.919 36.4876C26.2902 36.1981 26.627 35.8614 27.3003 35.188L35.9288 26.5595C34.7544 26.0708 33.3635 25.2679 32.0481 23.9525C30.7324 22.6368 29.9295 21.2457 29.4408 20.0712L20.8121 28.6999L20.8121 28.6999C20.1388 29.3732 19.8021 29.7099 19.5125 30.0811C19.171 30.519 18.8782 30.9929 18.6392 31.4942C18.4367 31.9192 18.2861 32.3709 17.985 33.2743L16.397 38.0382C16.2488 38.4827 16.3645 38.9729 16.6959 39.3043C17.0273 39.6356 17.5174 39.7513 17.962 39.6031L22.7259 38.0152C23.6293 37.714 24.081 37.5635 24.506 37.3609C25.0073 37.122 25.4811 36.8292 25.919 36.4876Z" fill="#56CCF2" style="fill:#56CCF2;fill:color(display-p3 0.3373 0.8000 0.9490);fill-opacity:1;"/>
<path d="M38.3231 24.1652C40.1147 22.3736 40.1147 19.4687 38.3231 17.6771C36.5314 15.8854 33.6266 15.8854 31.8349 17.6771L30.8001 18.7119C30.8142 18.7547 30.8289 18.7981 30.8442 18.8421C31.2235 19.9354 31.9392 21.3687 33.2855 22.715C34.6319 24.0614 36.0651 24.7771 37.1585 25.1564C37.2022 25.1716 37.2454 25.1862 37.288 25.2003L38.3231 24.1652Z" fill="#56CCF2" style="fill:#56CCF2;fill:color(display-p3 0.3373 0.8000 0.9490);fill-opacity:1;"/>
</svg>
