<svg width="56" height="56" viewBox="0 0 56 56" fill="none" xmlns="http://www.w3.org/2000/svg">
<rect x="0.5" y="0.5" width="55" height="55" rx="9.5" fill="#1F1F1F" style="fill:#1F1F1F;fill:color(display-p3 0.1200 0.1200 0.1200);fill-opacity:1;"/>
<rect x="0.5" y="0.5" width="55" height="55" rx="9.5" stroke="#333333" style="stroke:#333333;stroke:color(display-p3 0.2000 0.2000 0.2000);stroke-opacity:1;"/>
<path d="M16.3335 21.5833C16.3335 18.6838 18.684 16.3333 21.5835 16.3333C24.483 16.3333 26.8335 18.6838 26.8335 21.5833V25.0833C26.8335 25.4902 26.8335 25.6936 26.7888 25.8605C26.6674 26.3134 26.3136 26.6672 25.8607 26.7886C25.6938 26.8333 25.4904 26.8333 25.0835 26.8333H21.5835C18.684 26.8333 16.3335 24.4828 16.3335 21.5833Z" fill="#56CCF2" style="fill:#56CCF2;fill:color(display-p3 0.3373 0.8000 0.9490);fill-opacity:1;"/>
<path d="M29.1668 30.9166C29.1668 30.5098 29.1668 30.3064 29.2116 30.1394C29.3329 29.6865 29.6867 29.3327 30.1396 29.2114C30.3065 29.1666 30.51 29.1666 30.9168 29.1666H34.4168C37.3163 29.1666 39.6668 31.5172 39.6668 34.4166C39.6668 37.3161 37.3163 39.6666 34.4168 39.6666C31.5173 39.6666 29.1668 37.3161 29.1668 34.4166V30.9166Z" fill="#56CCF2" style="fill:#56CCF2;fill:color(display-p3 0.3373 0.8000 0.9490);fill-opacity:1;"/>
<path d="M16.3335 34.4166C16.3335 31.5172 18.684 29.1666 21.5835 29.1666H24.7335C25.4686 29.1666 25.8361 29.1666 26.1169 29.3097C26.3638 29.4355 26.5646 29.6363 26.6904 29.8833C26.8335 30.164 26.8335 30.5316 26.8335 31.2666V34.4166C26.8335 37.3161 24.483 39.6666 21.5835 39.6666C18.684 39.6666 16.3335 37.3161 16.3335 34.4166Z" fill="#56CCF2" style="fill:#56CCF2;fill:color(display-p3 0.3373 0.8000 0.9490);fill-opacity:1;"/>
<path d="M29.1668 21.5833C29.1668 18.6838 31.5173 16.3333 34.4168 16.3333C37.3163 16.3333 39.6668 18.6838 39.6668 21.5833C39.6668 24.4828 37.3163 26.8333 34.4168 26.8333H30.6668C30.4927 26.8333 30.4056 26.8333 30.3324 26.8251C29.7239 26.7565 29.2436 26.2763 29.1751 25.6678C29.1668 25.5945 29.1668 25.5075 29.1668 25.3333V21.5833Z" fill="#56CCF2" style="fill:#56CCF2;fill:color(display-p3 0.3373 0.8000 0.9490);fill-opacity:1;"/>
</svg>
