<svg width="58" height="58" viewBox="0 0 58 58" fill="none" xmlns="http://www.w3.org/2000/svg">
<path d="M28.9998 3.62501C23.8228 3.62576 18.7699 5.20996 14.5192 8.16502C10.2684 11.1201 7.02325 15.3046 5.21912 20.1571C3.41499 25.0095 3.13824 30.2977 4.42599 35.312C5.71375 40.3262 8.5044 44.8266 12.4235 48.2093C16.3425 51.5919 21.2024 53.6949 26.3511 54.236C31.4997 54.7771 36.6906 53.7305 41.2273 51.2366C45.764 48.7427 49.4294 44.9208 51.7315 40.2839C54.0336 35.6469 54.8624 30.4168 54.1065 25.2953C54.062 24.9893 53.94 24.6999 53.7521 24.4544C53.5641 24.2089 53.3165 24.0156 53.0328 23.8928C52.7491 23.77 52.4386 23.7218 52.131 23.7528C51.8234 23.7839 51.5289 23.893 51.2754 24.07C50.2816 24.7639 49.1296 25.1975 47.9249 25.3313C46.7202 25.465 45.5012 25.2946 44.3793 24.8355C43.2575 24.3765 42.2687 23.6435 41.5033 22.7036C40.7379 21.7637 40.2204 20.6469 39.998 19.4554C39.9308 19.0951 39.7558 18.7636 39.4963 18.5047C39.2368 18.2458 38.9049 18.0717 38.5444 18.0054C37.3517 17.7836 36.2337 17.2661 35.2928 16.5002C34.352 15.7343 33.6184 14.7446 33.1592 13.6217C32.7 12.4988 32.5299 11.2787 32.6645 10.073C32.7992 8.86732 33.2342 7.71471 33.9298 6.72076C34.1059 6.46731 34.2143 6.1731 34.2449 5.86599C34.2754 5.55888 34.2271 5.24906 34.1044 4.96588C33.9817 4.6827 33.7887 4.43555 33.5437 4.24784C33.2987 4.06013 33.0099 3.93808 32.7045 3.89326C31.4778 3.71346 30.2396 3.6238 28.9998 3.62501ZM28.9998 31.7188C28.2787 31.7188 27.5872 31.4323 27.0773 30.9225C26.5675 30.4126 26.281 29.7211 26.281 29C26.281 28.279 26.5675 27.5874 27.0773 27.0776C27.5872 26.5677 28.2787 26.2813 28.9998 26.2813C29.7208 26.2813 30.4123 26.5677 30.9222 27.0776C31.4321 27.5874 31.7185 28.279 31.7185 29C31.7185 29.7211 31.4321 30.4126 30.9222 30.9225C30.4123 31.4323 29.7208 31.7188 28.9998 31.7188ZM21.7498 38.9688C21.7498 39.6898 21.4633 40.3813 20.9535 40.8912C20.4436 41.4011 19.7521 41.6875 19.031 41.6875C18.31 41.6875 17.6184 41.4011 17.1086 40.8912C16.5987 40.3813 16.3123 39.6898 16.3123 38.9688C16.3123 38.2477 16.5987 37.5562 17.1086 37.0463C17.6184 36.5365 18.31 36.25 19.031 36.25C19.7521 36.25 20.4436 36.5365 20.9535 37.0463C21.4633 37.5562 21.7498 38.2477 21.7498 38.9688ZM17.2185 25.375C16.8615 25.375 16.508 25.3047 16.1781 25.1681C15.8482 25.0314 15.5485 24.8312 15.2961 24.5787C15.0436 24.3262 14.8434 24.0265 14.7067 23.6967C14.5701 23.3668 14.4998 23.0133 14.4998 22.6563C14.4998 22.2992 14.5701 21.9457 14.7067 21.6158C14.8434 21.286 15.0436 20.9863 15.2961 20.7338C15.5485 20.4814 15.8482 20.2811 16.1781 20.1445C16.508 20.0078 16.8615 19.9375 17.2185 19.9375C17.9396 19.9375 18.6311 20.224 19.141 20.7338C19.6508 21.2437 19.9373 21.9352 19.9373 22.6563C19.9373 23.3773 19.6508 24.0688 19.141 24.5787C18.6311 25.0886 17.9396 25.375 17.2185 25.375ZM38.0623 40.7813C38.0623 41.5023 37.7758 42.1938 37.266 42.7037C36.7561 43.2136 36.0646 43.5 35.3435 43.5C34.6225 43.5 33.9309 43.2136 33.4211 42.7037C32.9112 42.1938 32.6248 41.5023 32.6248 40.7813C32.6248 40.0602 32.9112 39.3687 33.4211 38.8588C33.9309 38.349 34.6225 38.0625 35.3435 38.0625C36.0646 38.0625 36.7561 38.349 37.266 38.8588C37.7758 39.3687 38.0623 40.0602 38.0623 40.7813Z" fill="#56CCF2" style="fill:#56CCF2;fill:color(display-p3 0.3373 0.8000 0.9490);fill-opacity:1;"/>
</svg>
